<?xml version="1.0" encoding="UTF-8"?>
<!DOCTYPE svg PUBLIC "-//W3C//DTD SVG 1.1//EN" "http://www.w3.org/Graphics/SVG/1.1/DTD/svg11.dtd">
<svg version="1.1" xmlns="http://www.w3.org/2000/svg" xmlns:xlink="http://www.w3.org/1999/xlink" x="0" y="0" width="50" height="50" viewBox="0, 0, 50, 50">
  <g id="Background">
    <rect x="0" y="0" width="50" height="50" fill="#FFFFFF"/>
  </g>
  <g id="tile">
    <path d="M-0,-0 L50,-0 L50,50 L-0,50 L-0,-0 z" fill="#00CE4B"/>
    <g opacity="0.23">
      <path d="M6.681,8.734 L12.886,1.969 L20.215,7.749 z" fill="#00FF9E"/>
      <path d="M20.215,7.749 L26.42,0.985 L33.749,6.765 z" fill="#00C67B"/>
      <path d="M33.749,6.765 L39.954,-0 L47.283,5.78 z" fill="#00FF9E"/>
      <path d="M7.524,18.139 L11.756,8.365 L17.675,17.4 z" fill="#00C67B"/>
      <path d="M17.675,17.4 L21.907,7.626 L27.825,16.662 z" fill="#00FF9E"/>
      <path d="M27.825,16.662 L32.057,6.888 L37.976,15.924 z" fill="#00C67B"/>
      <path d="M37.976,15.924 L42.208,6.15 L48.126,15.185 z" fill="#00C67B"/>
      <path d="M8.274,26.499 L14.291,17.646 L21.808,25.514 z" fill="#00FF9E"/>
      <path d="M21.808,25.514 L27.825,16.662 L35.342,24.53 z" fill="#00FF9E"/>
      <path d="M35.342,24.53 L41.359,15.677 L48.876,23.545 z" fill="#00C67B"/>
      <path d="M9.398,39.034 L13.349,26.13 L19.548,38.295 z" fill="#00C67B"/>
      <path d="M19.548,38.295 L23.5,25.391 L29.699,37.557 z" fill="#00C67B"/>
      <path d="M29.699,37.557 L33.65,24.653 L39.849,36.818 z" fill="#00FF9E"/>
      <path d="M39.849,36.818 L43.801,23.914 L50,36.08 z" fill="#00C67B"/>
    </g>
    <g opacity="0.23">
      <path d="M-0,19.995 L5.58,12.803 L13.402,18.033 z" fill="#00FF9E"/>
      <path d="M13.402,18.033 L18.982,10.84 L26.804,16.07 z" fill="#00C67B"/>
      <path d="M26.804,16.07 L32.384,8.877 L40.206,14.107 z" fill="#00FF9E"/>
      <path d="M1.681,29.309 L5.026,19.259 L11.733,27.837 z" fill="#00C67B"/>
      <path d="M11.733,27.837 L15.077,17.787 L21.784,26.365 z" fill="#00FF9E"/>
      <path d="M21.784,26.365 L25.129,16.315 L31.836,24.893 z" fill="#00C67B"/>
      <path d="M31.836,24.893 L35.181,14.843 L41.887,23.421 z" fill="#00C67B"/>
      <path d="M3.175,37.587 L8.382,28.327 L16.577,35.625 z" fill="#00FF9E"/>
      <path d="M16.577,35.625 L21.784,26.365 L29.979,33.662 z" fill="#00FF9E"/>
      <path d="M29.979,33.662 L35.186,24.402 L43.381,31.699 z" fill="#00C67B"/>
      <path d="M5.416,50 L8.201,36.851 L15.467,48.528 z" fill="#00C67B"/>
      <path d="M15.467,48.528 L18.253,35.379 L25.519,47.056 z" fill="#00C67B"/>
      <path d="M25.519,47.056 L28.304,33.907 L35.57,45.584 z" fill="#00FF9E"/>
      <path d="M35.57,45.584 L38.356,32.435 L45.622,44.112 z" fill="#00C67B"/>
    </g>
    <path d="M50,0 L50,50 L0,50 L0,0 L50,0 z M48,2 L2,2 L2,48 L48,48 L48,2 z" fill="#1FC000" fill-opacity="0.444"/>
  </g>
  <g id="selection">
    <path d="M-0,-0 L50,-0 L50,50 L-0,50 L-0,-0 z" fill="#0079D0" fill-opacity="0.051"/>
  </g>
</svg>