<?xml version="1.0" encoding="UTF-8"?>
<!DOCTYPE svg PUBLIC "-//W3C//DTD SVG 1.1//EN" "http://www.w3.org/Graphics/SVG/1.1/DTD/svg11.dtd">
<svg version="1.1" xmlns="http://www.w3.org/2000/svg" xmlns:xlink="http://www.w3.org/1999/xlink" x="0" y="0" width="256" height="256" viewBox="0, 0, 256, 256">
  <g id="ship">
    <path d="M180.271,194.248 L190.841,194.248 L190.841,242.236 L160.734,242.236 L160.734,215.451 L158.982,215.451 L158.982,256 L128.875,256 L128.875,215.451 L127.124,215.451 L127.124,256 L97.017,256 L97.017,215.451 L95.266,215.451 L95.266,242.236 L65.159,242.236 L65.159,194.248 L75.729,194.248 L75.729,186.286 L0,186.286 L64.96,106.122 C60.961,102.42 59.343,97.209 59.076,91.912 C59.093,87.999 60.181,84.193 62.371,80.949 L44.465,49.936 L61.522,40.089 L79.658,71.5 C80.795,71.465 81.821,71.643 82.923,71.871 L128,0 L180.271,83.342 L180.271,92.833 L256,186.286 L180.271,186.286 L180.271,194.248 z" fill="#AAAAAA"/>
  </g>
</svg>
