<?xml version="1.0" encoding="UTF-8"?>
<!DOCTYPE svg PUBLIC "-//W3C//DTD SVG 1.1//EN" "http://www.w3.org/Graphics/SVG/1.1/DTD/svg11.dtd">
<svg version="1.1" xmlns="http://www.w3.org/2000/svg" xmlns:xlink="http://www.w3.org/1999/xlink" x="0" y="0" width="256" height="256" viewBox="0, 0, 256, 256">
  <defs>
    <clipPath id="Clip_1">
      <path d="M-51,-51 L307,-51 L307,307 L-51,307 z M79.658,71.5 L61.522,40.089 L44.465,49.936 L62.371,80.949 C60.181,84.193 59.093,87.999 59.076,91.912 C59.343,97.209 60.961,102.42 64.96,106.122 L0,186.286 L75.729,186.286 L75.729,194.248 L65.159,194.248 L65.159,242.236 L95.266,242.236 L95.266,215.451 L97.017,215.451 L97.017,256 L127.124,256 L127.124,215.451 L128.875,215.451 L128.875,256 L158.982,256 L158.982,215.451 L160.734,215.451 L160.734,242.236 L190.841,242.236 L190.841,194.248 L180.271,194.248 L180.271,186.286 L256,186.286 L180.271,92.833 L180.271,83.342 L128,0 L82.923,71.871 C81.821,71.643 80.795,71.465 79.658,71.5 z"/>
    </clipPath>
    <filter id="Shadow_2">
      <feGaussianBlur in="SourceAlpha" stdDeviation="25"/>
      <feOffset dx="0" dy="0" result="offsetblur"/>
      <feFlood flood-color="#E1FF2F"/>
      <feComposite in2="offsetblur" operator="in"/>
    </filter>
  </defs>
  <g id="Spaceship.png">
    <g>
      <path d="M75.729,83.342 L180.271,83.342 L180.271,215.451 L75.729,215.451 L75.729,83.342 z" fill="#D4D4D4"/>
      <path d="M180.271,83.342 L180.271,215.451 L75.729,215.451 L75.729,83.342 L180.271,83.342 z M175.271,88.342 L80.729,88.342 L80.729,210.451 L175.271,210.451 L175.271,88.342 z" fill="#000000"/>
    </g>
    <g>
      <path d="M75.729,83.342 L128,0 L180.271,83.342 z" fill="#43A2FF"/>
      <path d="M128,0 L180.271,83.342 L75.729,83.342 L128,0 z M128,9.41 L84.767,78.342 L171.233,78.342 L128,9.41 z" fill="#000000"/>
    </g>
    <g>
      <path d="M65.159,194.248 L95.266,194.248 L95.266,242.236 L65.159,242.236 L65.159,194.248 z" fill="#8C8C8C"/>
      <path d="M95.266,194.248 L95.266,242.236 L65.159,242.236 L65.159,194.248 L95.266,194.248 z M90.266,199.248 L70.159,199.248 L70.159,237.236 L90.266,237.236 L90.266,199.248 z" fill="#000000"/>
    </g>
    <g>
      <path d="M97.017,208.013 L127.124,208.013 L127.124,256 L97.017,256 L97.017,208.013 z" fill="#A4A4A4"/>
      <path d="M127.124,208.013 L127.124,256 L97.017,256 L97.017,208.013 L127.124,208.013 z M122.124,213.013 L102.017,213.013 L102.017,251 L122.124,251 L122.124,213.013 z" fill="#000000"/>
    </g>
    <g>
      <path d="M128.876,208.013 L158.983,208.013 L158.983,256 L128.876,256 L128.876,208.013 z" fill="#8C8C8C"/>
      <path d="M158.982,208.013 L158.982,256 L128.876,256 L128.876,208.013 L158.982,208.013 z M153.982,213.013 L133.875,213.013 L133.875,251 L153.982,251 L153.982,213.013 z" fill="#000000"/>
    </g>
    <g>
      <path d="M160.734,194.248 L190.841,194.248 L190.841,242.236 L160.734,242.236 L160.734,194.248 z" fill="#A4A4A4"/>
      <path d="M190.841,194.248 L190.841,242.236 L160.734,242.236 L160.734,194.248 L190.841,194.248 z M185.841,199.248 L165.734,199.248 L165.734,237.236 L185.841,237.236 L185.841,199.248 z" fill="#000000"/>
    </g>
    <g>
      <path d="M128,186.286 C114.771,186.286 104.046,167.202 104.046,143.661 C104.046,120.12 114.771,101.036 128,101.036 C141.229,101.036 151.954,120.12 151.954,143.661 C151.954,167.202 141.229,186.286 128,186.286 z" fill="#C80202"/>
      <path d="M128,101.036 C141.229,101.036 151.954,120.12 151.954,143.661 C151.954,167.202 141.229,186.286 128,186.286 C114.771,186.286 104.046,167.202 104.046,143.661 C104.046,120.12 114.771,101.036 128,101.036 z M128,106.036 C118.306,106.036 109.046,122.514 109.046,143.661 C109.046,164.807 118.306,181.286 128,181.286 C137.694,181.286 146.954,164.807 146.954,143.661 C146.954,122.514 137.694,106.036 128,106.036 z" fill="#000000"/>
    </g>
    <g>
      <path d="M180.271,92.833 L256,186.286 L180.271,186.286 z" fill="#FFF64C"/>
      <path d="M180.271,92.833 L256,186.286 L180.271,186.286 L180.271,92.833 z M185.271,106.945 L185.271,181.286 L245.513,181.286 L185.271,106.945 z" fill="#000000"/>
    </g>
    <g>
      <path d="M75.729,92.833 L0,186.286 L75.729,186.286 z" fill="#FFF64C"/>
      <path d="M75.729,92.833 L75.729,186.286 L0,186.286 L75.729,92.833 z M70.729,106.945 L10.487,181.286 L70.729,181.286 L70.729,106.945 z" fill="#000000"/>
    </g>
    <g>
      <path d="M79.495,112.331 C68.218,112.331 59.076,103.189 59.076,91.912 C59.076,80.635 68.218,71.493 79.495,71.493 C90.772,71.493 99.914,80.635 99.914,91.912 C99.914,103.189 90.772,112.331 79.495,112.331 z" fill="#929292"/>
      <path d="M79.495,71.493 C90.772,71.493 99.914,80.635 99.914,91.912 C99.914,103.189 90.772,112.331 79.495,112.331 C68.218,112.331 59.076,103.189 59.076,91.912 C59.076,80.635 68.218,71.493 79.495,71.493 z M79.495,76.493 C70.979,76.493 64.076,83.396 64.076,91.912 C64.076,100.428 70.979,107.331 79.495,107.331 C88.011,107.331 94.914,100.428 94.914,91.912 C94.914,83.396 88.011,76.493 79.495,76.493 z" fill="#000000"/>
    </g>
    <g>
      <path d="M44.465,49.936 L61.522,40.089 L104.046,113.742 L86.989,123.59 L44.465,49.936 z" fill="#C3C3C3"/>
      <path d="M61.522,40.089 L104.046,113.742 L86.989,123.59 L44.465,49.936 L61.522,40.089 z M59.692,46.919 L51.296,51.766 L88.819,116.76 L97.216,111.912 L59.692,46.919 z" fill="#000000"/>
    </g>
  </g>
  <g id="Spaceship_Selected.png" display="none">
    <g>
      <path d="M180.271,194.248 L190.841,194.248 L190.841,242.236 L160.734,242.236 L160.734,215.451 L158.982,215.451 L158.982,256 L128.875,256 L128.875,215.451 L127.124,215.451 L127.124,256 L97.017,256 L97.017,215.451 L95.266,215.451 L95.266,242.236 L65.159,242.236 L65.159,194.248 L75.729,194.248 L75.729,186.286 L0,186.286 L64.96,106.122 C60.961,102.42 59.343,97.209 59.076,91.912 C59.093,87.999 60.181,84.193 62.371,80.949 L44.465,49.936 L61.522,40.089 L79.658,71.5 C80.795,71.465 81.821,71.643 82.923,71.871 L128,0 L180.271,83.342 L180.271,92.833 L256,186.286 L180.271,186.286 L180.271,194.248 z" fill="#FAFF00"/>
      <path d="M128,0 L180.271,83.342 L180.271,92.833 L256,186.286 L180.271,186.286 L180.271,194.248 L190.841,194.248 L190.841,242.236 L160.734,242.236 L160.734,215.451 L158.982,215.451 L158.982,256 L128.875,256 L128.875,215.451 L127.124,215.451 L127.124,256 L97.017,256 L97.017,215.451 L95.266,215.451 L95.266,242.236 L65.159,242.236 L65.159,194.248 L75.729,194.248 L75.729,186.286 L0,186.286 L64.96,106.122 C60.961,102.42 59.343,97.209 59.076,91.912 C59.093,87.999 60.181,84.193 62.371,80.949 L44.465,49.936 L61.522,40.089 L79.658,71.5 C80.795,71.465 81.821,71.643 82.923,71.871 L128,0 z M128,9.41 L87.159,74.528 L81.906,76.767 C80.866,76.551 80.326,76.482 79.812,76.498 L75.327,74 L59.692,46.919 L51.295,51.766 L66.701,78.449 L66.515,83.747 C64.809,86.159 64.295,88.955 64.084,91.827 C64.232,95.849 65.568,99.541 68.357,102.453 L68.845,109.27 L10.487,181.286 L75.729,181.286 L80.729,186.286 L80.729,194.248 L75.729,199.248 L70.159,199.248 L70.159,237.236 L90.266,237.236 L90.266,215.451 L95.266,210.451 L97.017,210.451 L102.017,215.451 L102.017,251 L122.124,251 L122.124,215.451 L127.124,210.451 L128.875,210.451 L133.875,215.451 L133.875,251 L153.982,251 L153.982,215.451 L158.982,210.451 L160.734,210.451 L165.734,215.451 L165.734,237.236 L185.841,237.236 L185.841,199.248 L180.271,199.248 L175.271,194.248 L175.271,186.286 L180.271,181.286 L245.513,181.286 L176.386,95.981 L175.271,92.833 L175.271,84.78 L128,9.41 z" fill="#FF0000"/>
      <g>
        <path d="M79.658,71.5 C80.795,71.465 81.821,71.643 82.923,71.871 L128,0 L180.271,83.342 L180.271,92.833 L256,186.286 L180.271,186.286 L180.271,194.248 L190.841,194.248 L190.841,242.236 L160.734,242.236 L160.734,215.451 L158.982,215.451 L158.982,256 L128.875,256 L128.875,215.451 L127.124,215.451 L127.124,256 L97.017,256 L97.017,215.451 L95.266,215.451 L95.266,242.236 L65.159,242.236 L65.159,194.248 L75.729,194.248 L75.729,186.286 L0,186.286 L64.96,106.122 C60.961,102.42 59.343,97.209 59.076,91.912 C59.093,87.999 60.181,84.193 62.371,80.949 L44.465,49.936 L61.522,40.089 L79.658,71.5 z" fill="rgba(0,0,0,1)" clip-path="url(#Clip_1)" filter="url(#Shadow_2)"/>
        <path d="M80.043,83.994 C79.887,83.999 79.769,83.992 79.717,83.986 C79.815,83.998 80.011,84.033 80.382,84.11 C85.498,85.173 90.736,82.94 93.512,78.513 L138.589,6.642 L117.41,6.642 L169.682,89.983 L180.271,83.342 L167.771,83.342 L167.771,92.833 C167.771,95.699 168.755,98.477 170.559,100.703 L246.288,194.155 L256,173.786 L180.271,173.786 C173.368,173.786 167.771,179.382 167.771,186.286 L167.771,194.248 C167.771,201.152 173.368,206.748 180.271,206.748 L190.841,206.748 L190.841,194.248 L178.341,194.248 L178.341,242.236 L190.841,229.736 L160.734,229.736 L173.234,242.236 L173.234,215.451 C173.234,208.547 167.637,202.951 160.734,202.951 L158.982,202.951 C152.079,202.951 146.482,208.547 146.482,215.451 L146.482,256 L158.982,243.5 L128.875,243.5 L141.375,256 L141.375,215.451 C141.375,208.547 135.779,202.951 128.875,202.951 L127.124,202.951 C120.221,202.951 114.624,208.547 114.624,215.451 L114.624,256 L127.124,243.5 L97.017,243.5 L109.517,256 L109.517,215.451 C109.517,208.547 103.921,202.951 97.017,202.951 L95.266,202.951 C88.363,202.951 82.766,208.547 82.766,215.451 L82.766,242.236 L95.266,229.736 L65.159,229.736 L77.659,242.236 L77.659,194.248 L65.159,194.248 L65.159,206.748 L75.729,206.748 C82.632,206.748 88.229,201.152 88.229,194.248 L88.229,186.286 C88.229,179.382 82.632,173.786 75.729,173.786 L0,173.786 L9.712,194.155 L74.672,113.992 C78.818,108.876 78.284,101.422 73.452,96.949 C72.414,95.988 71.705,94.153 71.56,91.282 L59.076,91.912 L71.576,91.967 C71.583,90.412 71.989,89.042 72.73,87.945 C75.406,83.982 75.587,78.84 73.196,74.699 L55.291,43.686 L50.715,60.762 L67.772,50.914 L50.697,46.339 L68.832,77.75 C71.134,81.737 75.441,84.136 80.043,83.994 z M79.272,59.006 L79.658,71.5 L90.483,65.25 L72.347,33.839 C68.896,27.86 61.251,25.812 55.272,29.263 L38.215,39.111 C32.237,42.563 30.188,50.208 33.64,56.186 L51.545,87.199 L62.371,80.949 L52.011,73.954 C48.447,79.232 46.605,85.443 46.576,91.856 C46.575,92.085 46.58,92.314 46.592,92.542 C47.041,101.442 50.123,109.421 56.469,115.295 L64.96,106.122 L55.249,98.252 L-9.712,178.416 C-16.334,186.587 -10.518,198.786 0,198.786 L75.729,198.786 L75.729,186.286 L63.229,186.286 L63.229,194.248 L75.729,194.248 L75.729,181.748 L65.159,181.748 C58.256,181.748 52.659,187.345 52.659,194.248 L52.659,242.236 C52.659,249.139 58.256,254.736 65.159,254.736 L95.266,254.736 C102.17,254.736 107.766,249.139 107.766,242.236 L107.766,215.451 L95.266,215.451 L95.266,227.951 L97.017,227.951 L97.017,215.451 L84.517,215.451 L84.517,256 C84.517,262.903 90.114,268.5 97.017,268.5 L127.124,268.5 C134.028,268.5 139.624,262.903 139.624,256 L139.624,215.451 L127.124,215.451 L127.124,227.951 L128.875,227.951 L128.875,215.451 L116.375,215.451 L116.375,256 C116.375,262.903 121.972,268.5 128.875,268.5 L158.982,268.5 C165.886,268.5 171.482,262.903 171.482,256 L171.482,215.451 L158.982,215.451 L158.982,227.951 L160.734,227.951 L160.734,215.451 L148.234,215.451 L148.234,242.236 C148.234,249.139 153.83,254.736 160.734,254.736 L190.841,254.736 C197.744,254.736 203.341,249.139 203.341,242.236 L203.341,194.248 C203.341,187.345 197.744,181.748 190.841,181.748 L180.271,181.748 L180.271,194.248 L192.771,194.248 L192.771,186.286 L180.271,186.286 L180.271,198.786 L256,198.786 C266.518,198.786 272.333,186.587 265.712,178.416 L189.983,84.964 L180.271,92.833 L192.771,92.833 L192.771,83.342 C192.771,80.992 192.109,78.69 190.861,76.7 L138.589,-6.642 C133.69,-14.453 122.309,-14.453 117.41,-6.642 L72.333,65.23 L82.923,71.871 L85.464,59.632 C83.189,59.16 81.458,58.939 79.272,59.006 z" fill="rgba(0,0,0,1)" clip-path="url(#Clip_1)" filter="url(#Shadow_2)"/>
      </g>
    </g>
    <g>
      <path d="M75.729,83.342 L180.271,83.342 L180.271,215.451 L75.729,215.451 L75.729,83.342 z" fill="#D4D4D4"/>
      <path d="M180.271,83.342 L180.271,215.451 L75.729,215.451 L75.729,83.342 L180.271,83.342 z M175.271,88.342 L80.729,88.342 L80.729,210.451 L175.271,210.451 L175.271,88.342 z" fill="#000000"/>
    </g>
    <g>
      <path d="M75.729,83.342 L128,0 L180.271,83.342 z" fill="#43A2FF"/>
      <path d="M128,0 L180.271,83.342 L75.729,83.342 L128,0 z M128,9.41 L84.767,78.342 L171.233,78.342 L128,9.41 z" fill="#000000"/>
    </g>
    <g>
      <path d="M65.159,194.248 L95.266,194.248 L95.266,242.236 L65.159,242.236 L65.159,194.248 z" fill="#8C8C8C"/>
      <path d="M95.266,194.248 L95.266,242.236 L65.159,242.236 L65.159,194.248 L95.266,194.248 z M90.266,199.248 L70.159,199.248 L70.159,237.236 L90.266,237.236 L90.266,199.248 z" fill="#000000"/>
    </g>
    <g>
      <path d="M97.017,208.013 L127.124,208.013 L127.124,256 L97.017,256 L97.017,208.013 z" fill="#A4A4A4"/>
      <path d="M127.124,208.013 L127.124,256 L97.017,256 L97.017,208.013 L127.124,208.013 z M122.124,213.013 L102.017,213.013 L102.017,251 L122.124,251 L122.124,213.013 z" fill="#000000"/>
    </g>
    <g>
      <path d="M128.875,208.013 L158.983,208.013 L158.983,256 L128.875,256 L128.875,208.013 z" fill="#8C8C8C"/>
      <path d="M158.982,208.013 L158.982,256 L128.875,256 L128.875,208.013 L158.982,208.013 z M153.982,213.013 L133.875,213.013 L133.875,251 L153.982,251 L153.982,213.013 z" fill="#000000"/>
    </g>
    <g>
      <path d="M160.734,194.248 L190.841,194.248 L190.841,242.236 L160.734,242.236 L160.734,194.248 z" fill="#A4A4A4"/>
      <path d="M190.841,194.248 L190.841,242.236 L160.734,242.236 L160.734,194.248 L190.841,194.248 z M185.841,199.248 L165.734,199.248 L165.734,237.236 L185.841,237.236 L185.841,199.248 z" fill="#000000"/>
    </g>
    <g>
      <path d="M128,186.286 C114.771,186.286 104.046,167.202 104.046,143.661 C104.046,120.12 114.771,101.036 128,101.036 C141.229,101.036 151.954,120.12 151.954,143.661 C151.954,167.202 141.229,186.286 128,186.286 z" fill="#C80202"/>
      <path d="M128,101.036 C141.229,101.036 151.954,120.12 151.954,143.661 C151.954,167.202 141.229,186.286 128,186.286 C114.771,186.286 104.046,167.202 104.046,143.661 C104.046,120.12 114.771,101.036 128,101.036 z M128,106.036 C118.306,106.036 109.046,122.514 109.046,143.661 C109.046,164.807 118.306,181.286 128,181.286 C137.694,181.286 146.954,164.807 146.954,143.661 C146.954,122.514 137.694,106.036 128,106.036 z" fill="#000000"/>
    </g>
    <g>
      <path d="M180.271,92.833 L256,186.286 L180.271,186.286 z" fill="#FFF64C"/>
      <path d="M180.271,92.833 L256,186.286 L180.271,186.286 L180.271,92.833 z M185.271,106.945 L185.271,181.286 L245.513,181.286 L185.271,106.945 z" fill="#000000"/>
    </g>
    <g>
      <path d="M75.729,92.833 L-0,186.286 L75.729,186.286 z" fill="#FFF64C"/>
      <path d="M75.729,92.833 L75.729,186.286 L0,186.286 L75.729,92.833 z M70.729,106.945 L10.487,181.286 L70.729,181.286 L70.729,106.945 z" fill="#000000"/>
    </g>
    <g>
      <path d="M79.495,112.331 C68.218,112.331 59.076,103.189 59.076,91.912 C59.076,80.635 68.218,71.493 79.495,71.493 C90.772,71.493 99.914,80.635 99.914,91.912 C99.914,103.189 90.772,112.331 79.495,112.331 z" fill="#929292"/>
      <path d="M79.495,71.493 C90.772,71.493 99.914,80.635 99.914,91.912 C99.914,103.189 90.772,112.331 79.495,112.331 C68.218,112.331 59.076,103.189 59.076,91.912 C59.076,80.635 68.218,71.493 79.495,71.493 z M79.495,76.493 C70.979,76.493 64.076,83.396 64.076,91.912 C64.076,100.428 70.979,107.331 79.495,107.331 C88.011,107.331 94.914,100.428 94.914,91.912 C94.914,83.396 88.011,76.493 79.495,76.493 z" fill="#000000"/>
    </g>
    <g>
      <path d="M44.465,49.936 L61.522,40.089 L104.046,113.742 L86.989,123.59 L44.465,49.936 z" fill="#C3C3C3"/>
      <path d="M61.522,40.089 L104.046,113.742 L86.989,123.59 L44.465,49.936 L61.522,40.089 z M59.692,46.919 L51.296,51.766 L88.819,116.76 L97.216,111.912 L59.692,46.919 z" fill="#000000"/>
    </g>
  </g>
</svg>
