<?xml version="1.0" encoding="UTF-8"?>
<!DOCTYPE svg PUBLIC "-//W3C//DTD SVG 1.1//EN" "http://www.w3.org/Graphics/SVG/1.1/DTD/svg11.dtd">
<svg version="1.1" xmlns="http://www.w3.org/2000/svg" xmlns:xlink="http://www.w3.org/1999/xlink" x="0" y="0" width="50" height="50" viewBox="0, 0, 50, 50">
  <g class="spaceship">
    <g class="gun">
+      <path d="M13.163,13.223 L9.317,13.223 L9.317,29.834 L13.163,29.834 L13.163,13.223 z" fill="#C3C3C3"/>
+      <path d="M13.163,13.223 L13.163,29.834 L9.317,29.834 L9.317,13.223 L13.163,13.223 z M11.913,14.473 L10.567,14.473 L10.567,28.584 L11.913,28.584 L11.913,14.473 z" fill="#000000"/>
+    </g>
    <g>
      <path d="M14.791,16.278 L35.209,16.278 L35.209,42.08 L14.791,42.08 L14.791,16.278 z" fill="#D4D4D4"/>
      <path d="M35.209,16.278 L35.209,42.08 L14.791,42.08 L14.791,16.278 L35.209,16.278 z M33.959,17.528 L16.041,17.528 L16.041,40.83 L33.959,40.83 L33.959,17.528 z" fill="#000000"/>
    </g>
    <g>
      <path d="M14.791,16.278 L25,-0 L35.209,16.278 z" fill="#43A2FF"/>
      <path d="M25,0 L35.209,16.278 L14.791,16.278 L25,0 z M25,2.352 L17.05,15.028 L32.95,15.028 L25,2.352 z" fill="#000000"/>
    </g>
    <g>
      <path d="M12.726,37.939 L18.607,37.939 L18.607,47.312 L12.726,47.312 L12.726,37.939 z" fill="#8C8C8C"/>
      <path d="M18.607,37.939 L18.607,47.312 L12.726,47.312 L12.726,37.939 L18.607,37.939 z M17.357,39.189 L13.976,39.189 L13.976,46.062 L17.357,46.062 L17.357,39.189 z" fill="#000000"/>
    </g>
    <g>
      <path d="M18.949,40.627 L24.829,40.627 L24.829,50 L18.949,50 L18.949,40.627 z" fill="#A4A4A4"/>
      <path d="M24.829,40.627 L24.829,50 L18.949,50 L18.949,40.627 L24.829,40.627 z M23.579,41.877 L20.199,41.877 L20.199,48.75 L23.579,48.75 L23.579,41.877 z" fill="#000000"/>
    </g>
    <g>
      <path d="M25.171,40.627 L31.051,40.627 L31.051,50 L25.171,50 L25.171,40.627 z" fill="#8C8C8C"/>
      <path d="M31.051,40.627 L31.051,50 L25.171,50 L25.171,40.627 L31.051,40.627 z M29.801,41.877 L26.421,41.877 L26.421,48.75 L29.801,48.75 L29.801,41.877 z" fill="#000000"/>
    </g>
    <g>
      <path d="M31.393,37.939 L37.274,37.939 L37.274,47.312 L31.393,47.312 L31.393,37.939 z" fill="#A4A4A4"/>
      <path d="M37.273,37.939 L37.273,47.312 L31.393,47.312 L31.393,37.939 L37.273,37.939 z M36.023,39.189 L32.643,39.189 L32.643,46.062 L36.023,46.062 L36.023,39.189 z" fill="#000000"/>
    </g>
    <g>
      <path d="M25,36.384 C22.416,36.384 20.321,32.657 20.321,28.059 C20.321,23.461 22.416,19.734 25,19.734 C27.584,19.734 29.679,23.461 29.679,28.059 C29.679,32.657 27.584,36.384 25,36.384 z" fill="#C80202"/>
      <path d="M25,19.733 C27.584,19.734 29.679,23.461 29.679,28.059 C29.679,32.657 27.584,36.384 25,36.384 C22.416,36.384 20.321,32.657 20.321,28.059 C20.321,23.461 22.416,19.734 25,19.734 z M25,20.983 C23.3,20.984 21.571,24.059 21.571,28.059 C21.571,32.058 23.3,35.134 25,35.134 C26.7,35.134 28.429,32.058 28.428,28.059 C28.429,24.059 26.7,20.984 25,20.983 z" fill="#000000"/>
    </g>
    <g>
      <path d="M35.209,18.132 L50,36.384 L35.209,36.384 z" fill="#FFF64C"/>
      <path d="M35.209,18.132 L50,36.384 L35.209,36.384 L35.209,18.132 z M36.459,21.66 L36.459,35.134 L47.378,35.134 L36.459,21.66 z" fill="#000000"/>
    </g>
    <g>
      <path d="M14.791,18.132 L0,36.384 L14.791,36.384 z" fill="#FFF64C"/>
      <path d="M14.791,18.132 L14.791,36.384 L0,36.384 L14.791,18.132 z M13.541,21.66 L2.622,35.134 L13.541,35.134 L13.541,21.66 z" fill="#000000"/>
    </g>
    
  </g>
</svg>
